<svg xmlns="http://www.w3.org/2000/svg" width="41.429" height="20" viewBox="0 0 41.429 20"><defs><style>.a{fill:#fff;}.b{fill:#f7931e;}</style></defs><g transform="translate(301.653 736.823)"><circle class="a" cx="4.286" cy="4.286" r="4.286" transform="translate(-295.938 -731.108)"/><path class="a" d="M-270.224-736.823h-21.429a10,10,0,0,0-10,10,10,10,0,0,0,10,10h21.429a10,10,0,0,0,10-10A10,10,0,0,0-270.224-736.823Zm-21.429,17.143a7.143,7.143,0,0,1-7.143-7.143,7.144,7.144,0,0,1,7.143-7.143,7.143,7.143,0,0,1,7.143,7.143A7.142,7.142,0,0,1-291.653-719.68Z"/><g transform="translate(-278.482 -733.966)"><path class="b" d="M-275.549-727.334l1.178.171a.1.1,0,0,1,.058.175l-.854.832a.094.094,0,0,0-.029.091l.2,1.174a.1.1,0,0,1-.149.109l-1.087-.57h-.033l-1.083.57a.105.105,0,0,1-.153-.109l.207-1.21-.011-.029-.876-.858a.1.1,0,0,1,.058-.175l1.178-.171a.115.115,0,0,0,.076-.058l.527-1.069a.1.1,0,0,1,.185,0l.527,1.069A.114.114,0,0,0-275.549-727.334Z" transform="translate(284.787 734.832)"/><path class="b" d="M-278.49-728.791l1.178-.171a.1.1,0,0,0,.08-.054l.527-1.069a.1.1,0,0,1,.186,0l.527,1.069a.1.1,0,0,0,.076.054l1.178.171a.1.1,0,0,1,.058.178l-.85.833a.1.1,0,0,0-.033.091l.2,1.174a.1.1,0,0,1-.149.109l-1.087-.571h-.033l-1.087.571a.1.1,0,0,1-.149-.109l.207-1.211-.011-.033-.88-.854A.106.106,0,0,1-278.49-728.791Z" transform="translate(288.545 731.981)"/><path class="b" d="M-280.34-728.468l1.178-.174a.114.114,0,0,0,.08-.055l.527-1.069a.1.1,0,0,1,.185,0l.527,1.069a.1.1,0,0,0,.076.055l1.178.174a.1.1,0,0,1,.058.175l-.854.833a.115.115,0,0,0-.029.091l.2,1.174a.105.105,0,0,1-.153.109l-1.083-.571h-.036l-1.083.571a.1.1,0,0,1-.149-.109l.207-1.211-.011-.029-.88-.858A.1.1,0,0,1-280.34-728.468Z" transform="translate(285.095 731.393)"/><path class="b" d="M-278.1-720.537a7.335,7.335,0,0,1-7.336-7.334,7.339,7.339,0,0,1,4.986-6.952,6.592,6.592,0,0,0-2.417,5.107,6.6,6.6,0,0,0,6.6,6.6,6.59,6.59,0,0,0,5.124-2.439A7.337,7.337,0,0,1-278.1-720.537Z" transform="translate(285.433 734.823)"/></g></g></svg>